<?xml version="1.0" standalone="no"?>
<!DOCTYPE svg PUBLIC "-//W3C//DTD SVG 1.1//EN" "http://www.w3.org/Graphics/SVG/1.1/DTD/svg11.dtd" >
<svg xmlns="http://www.w3.org/2000/svg" xmlns:xlink="http://www.w3.org/1999/xlink" version="1.1">
<metadata></metadata>
<defs>
<font id="splatoon2regular" horiz-adv-x="606" >
<font-face units-per-em="2048" ascent="1802" descent="-246" />
<missing-glyph horiz-adv-x="500" />
<glyph horiz-adv-x="0" />
<glyph horiz-adv-x="682" />
<glyph />
<glyph />
<glyph />
<glyph />
<glyph />
<glyph />
<glyph />
<glyph />
<glyph />
<glyph />
<glyph unicode="&#x9;" />
<glyph unicode="&#xa;" />
<glyph />
<glyph />
<glyph unicode="&#xd;" horiz-adv-x="681" />
<glyph />
<glyph />
<glyph />
<glyph />
<glyph />
<glyph />
<glyph />
<glyph />
<glyph />
<glyph />
<glyph />
<glyph />
<glyph />
<glyph />
<glyph />
<glyph />
<glyph />
<glyph />
<glyph unicode=" " />
<glyph unicode="!" horiz-adv-x="794" d="M188 1595l449 -6l-86 -1278h-313q-12 252 -24.5 572.5t-18.5 517.5zM238 166q147 4 309 0q-2 -117 -6 -242h-289q-6 129 -14 242z" />
<glyph unicode="&#x22;" horiz-adv-x="1095" d="M104 1866q205 2 412 2q-31 -289 -63 -570q-156 -1 -318 5q-20 276 -31 563zM588 1866q203 2 409 2q-35 -326 -65 -578q-171 7 -318 13q-6 258 -26 563z" />
<glyph unicode="#" horiz-adv-x="1505" d="M82 -131q47 154 119 407h-88l-9 353q35 0 102.5 1t102.5 3q20 68 72 256h-143l-2 360q49 0 134 -1t113 -1l131 422q166 0 338 -4q-53 -154 -139 -418q72 0 148 2q53 164 126 420q158 0 324 -4q-70 -207 -127 -418l111 2l-9 -372h-264q-12 -31 -42.5 -118t-47.5 -126 l131 2v-367l-272 -4q-31 -86 -137 -395h-277q57 154 144 405l-136 -2q-41 -133 -127 -403h-276zM606 633h144q55 162 84 250q-51 2 -146 2q-37 -117 -82 -252z" />
<glyph unicode="$" horiz-adv-x="1222" d="M68 1341q131 129 268 265q45 2 117 4q-2 20 8 100t10 96h311l-2 -188q14 0 49 1t50 1q117 -139 276 -293q-8 -162 -31 -356q-127 4 -247 4q-2 154 2 350l-105 -4q-6 -207 -12 -573h119q115 -119 245 -234q-14 -201 -16 -362q-119 -127 -250 -244h-119l-2 -187l-247 -2 v191h-91q-158 111 -288 225l-9 230l297 4q0 -143 5 -224q45 0 83 2q0 47 -1 163t-1 184q-70 0 -92 -2q-154 119 -313 237q4 332 -14 612zM379 1300q-4 -274 6 -550h100q-4 383 -8 555zM748 158q14 0 55 2t57 4q4 146 0 330h-104q-4 -225 -8 -336z" />
<glyph unicode="%" horiz-adv-x="1632" d="M80 1235l221 207l174 6l209 -217l-20 -189q-35 -47 -82 -95t-78 -73l-29 -24l-162 4l-225 186zM287 -47q170 408 353 858.5t282 695.5l98 248l350 -129q-182 -401 -377.5 -847.5t-300.5 -692.5l-102 -246q-55 16 -131 44t-123 48zM317 1042l134 2l12 175h-141zM942 461 q41 39 91 91t81 83l29 33l174 6q39 -41 96 -95.5t94 -86.5l39 -35l-20 -189q-35 -47 -87.5 -95t-86.5 -73l-35 -24l-162 4q-47 37 -98 84t-78 74l-29 28zM1159 268l133 2l13 174h-142z" />
<glyph unicode="&#x26;" horiz-adv-x="1597" d="M76 152l86 393l241 262q-84 150 -124 221l20 469l385 225l281 -196l73 -389l-311 -316q55 -68 124 -144.5t107 -119.5l41 -45l105 385l311 -76l-184 -385q55 -12 128 -23.5t120 -15.5l45 -6q-29 -98 -66 -206.5t-57 -168.5l-23 -57q-98 31 -201.5 67.5t-158.5 57.5 l-55 20q-45 -47 -117 -108.5t-121 -99.5l-47 -39l-381 55zM352 387q33 -55 77 -115.5t71 -91.5l28 -33l236 109q-113 164 -242 336zM489 1059l70 -74q31 35 108.5 118t116.5 132l-209 143z" />
<glyph unicode="'" horiz-adv-x="567" d="M70 1696q211 -4 417 -4q-8 -217 -14 -381q-82 -164 -139 -301q-76 16 -162 43q33 113 55 231q-6 -4 -139 21q-12 217 -18 391z" />
<glyph unicode="(" horiz-adv-x="942" d="M106 1290l386 555q82 -51 172 -110.5t139 -94.5l49 -34l-381 -422q-10 -174 -12 -386t0 -335l4 -125q59 -61 150.5 -146.5t152.5 -138.5l59 -53l-258 -186q-96 109 -200.5 216t-159.5 160l-55 54z" />
<glyph unicode=")" horiz-adv-x="948" d="M111 1597q164 130 301 230q193 -264 424 -537q-18 -537 -45 -1046q-199 -201 -416 -430q-131 98 -246 186q227 199 365 338q2 494 -5 862q-195 209 -378 397z" />
<glyph unicode="*" horiz-adv-x="870" d="M125 1493q57 74 92 145q27 -14 70 -42.5t69 -43.5q-2 100 -4 166q72 -6 164 2q0 -115 -2 -170q57 37 139 86q43 -73 90 -145q-29 -14 -70.5 -41t-66.5 -39q74 -51 137 -82q-51 -70 -94 -137l-135 82v-170q-68 2 -156 4v37.5v35v30v25.5v19.5v14.5v4q-57 -39 -143 -86 q-37 76 -82 141q61 41 135 82q-68 47 -143 82z" />
<glyph unicode="+" horiz-adv-x="1355" d="M145 885l365 -8q2 176 -8 378q168 4 342 11l-13 -394q176 -4 371 -4q0 -150 -6 -288q-203 8 -369 12q-2 -209 -2 -385q-141 6 -309 10v371q-152 -6 -358 -10q-4 150 -13 307z" />
<glyph unicode="," horiz-adv-x="571" d="M70 264q211 -4 417 -4q-8 -217 -14 -379q-82 -164 -139 -301q-76 16 -162 43q33 113 55 232q-6 -4 -139 20q-12 215 -18 389z" />
<glyph unicode="-" horiz-adv-x="1030" d="M106 717q401 -16 828 -21q-4 -201 -14 -372q-438 -10 -801 -15q-11 201 -13 408z" />
<glyph unicode="." horiz-adv-x="620" d="M102 272l418 -8l-16 -381l-393 4z" />
<glyph unicode="/" horiz-adv-x="1476" d="M203 -47q170 408 354 858.5t283 695.5l98 248l305 -102q-182 -401 -377.5 -848t-300.5 -692l-102 -246z" />
<glyph unicode="0" horiz-adv-x="1226" d="M96 1255q131 178 289 347q207 -6 459 0q158 -174 291 -371q-47 -549 -70 -1034q-137 -135 -270 -293q-135 2 -373 10q-160 127 -299 301q-6 471 -27 1040zM418 1239q10 -590 14 -1024q135 -2 344 -6q2 61 6 165.5t9.5 376t5.5 480.5q-23 2 -61 4t-138 4t-180 0z" />
<glyph unicode="1" horiz-adv-x="712" d="M82 1581q293 8 539 0q-47 -795 -62 -1675q-160 4 -326 4q41 764 78 1335q-94 8 -211 -4q-16 168 -18 340z" />
<glyph unicode="2" horiz-adv-x="1234" d="M109 1298q150 182 256 308q186 6 438 16q158 -163 297 -313q-31 -303 -74 -650q-135 -131 -295 -272q-143 8 -299 16q6 -188 12 -215q301 10 637 31q-6 -160 -20 -317q-428 4 -899 8q-12 252 -37 506q141 125 285 272q137 6 305 0q25 227 39 590q-53 0 -326 6 q20 -141 39 -416q-174 -10 -350 -10q0 139 -8 440z" />
<glyph unicode="3" horiz-adv-x="1165" d="M53 154l8 307l328 -12l-10 -271l393 4q-2 100 -9 215t-13 181l-5 63l-327 25l10 290l307 19l6 319l-485 -20l-39 323l528 5l277 -254l10 -375l-192 -135q33 -33 77 -72t72 -61l29 -23l74 -510q-57 -45 -125 -110.5t-107 -108.5l-41 -43q-129 4 -232.5 3t-168.5 -3l-66 -4 q-68 33 -142.5 95t-115.5 108z" />
<glyph unicode="4" horiz-adv-x="1159" d="M82 655l72 803l325 -43q-23 -152 -43 -335t-30 -292l-11 -108l232 37l35 895l299 -4q-15 -420 -27 -869q29 0 158 19q4 -139 0 -289q-133 -16 -164 -18l-4 -535q-78 -4 -162 -4t-129 2l-45 2q8 102 16 232.5t10 207.5l4 80q-78 -10 -137 -21.5t-80 -17.5l-22 -6 q-76 57 -150.5 124t-109.5 103z" />
<glyph unicode="5" horiz-adv-x="1128" d="M115 176l8 246l328 -10l-35 -222l321 5l-37 491h-303q-66 47 -132 99.5t-101 82.5l-35 29q6 207 14.5 388t14.5 259l6 78l856 -12l-2 -318l-588 31l-12 -334l299 19q66 -72 140.5 -144.5t115.5 -109.5l41 -37q-2 -100 4 -238.5t14 -224.5l6 -88q-39 -51 -97 -114.5 t-97 -102.5l-39 -39q-121 4 -221.5 3t-163.5 -3l-64 -4z" />
<glyph unicode="6" horiz-adv-x="1169" d="M94 156q6 373 7 677t1 420l-2 117l303 240l406 2q57 -68 122.5 -132.5t100.5 -95.5l37 -32l14 -224l-286 -2l-9 177h-366l-2 -383l352 32q61 -47 128 -109.5t104 -101.5l36 -41l29 -546q-66 -55 -133.5 -117t-101.5 -94l-35 -33h-396q-80 55 -156.5 116.5t-115.5 96.5z M408 180h370q-2 109 -9 232t-11 190l-6 68q-82 2 -157 2t-128 -2l-51 -2q-4 -229 -8 -488z" />
<glyph unicode="7" horiz-adv-x="1048" d="M53 1593q312 -2 918 0q-141 -940 -238 -1693l-303 10q102 723 170 1331q-213 -6 -541 -16q-6 172 -6 368z" />
<glyph unicode="8" horiz-adv-x="1173" d="M92 1335q158 137 283 281q201 6 434 -6q150 -143 266 -289q-18 -244 -49 -444q-96 -74 -162 -156q37 -35 84 -75t76 -60l31 -23l-37 -403q-117 -121 -256 -248q-195 -2 -377 -4q-150 139 -248 270q-20 186 -31 395q98 63 173 140q-33 41 -70 82t-57 61l-21 21zM418 1327 q2 -227 16 -461q121 0 295 -2q18 242 29 451q-115 10 -340 12zM428 188q106 -2 295 5q4 194 -2 360q-115 6 -289 8z" />
<glyph unicode="9" horiz-adv-x="1177" d="M102 1327q74 63 147 136t109 114l37 43h363l309 -289l-102 -1411l-478 -2l5 287l221 -15l8 250l-320 -30q-63 57 -126.5 123.5t-94.5 103.5l-30 37zM416 1307l8 -619l301 2q18 283 27 617h-336z" />
<glyph unicode=":" horiz-adv-x="811" d="M174 1159l449 -4q-8 -240 -15 -420q-221 -4 -415 -8q-13 239 -19 432zM188 324l435 -5q-8 -231 -15 -403q-213 -2 -399 -8q-13 230 -21 416z" />
<glyph unicode=";" horiz-adv-x="770" d="M168 1151q225 -4 448 -4q-8 -238 -14 -420q-221 -2 -416 -8q-10 239 -18 432zM193 264q211 -4 417 -4q-8 -217 -14 -379q-82 -164 -139 -301q-76 16 -162 43q33 113 55 232q-6 -4 -139 20q-12 215 -18 389z" />
<glyph unicode="&#x3c;" horiz-adv-x="937" d="M41 688l561 475l242 -258l-543 -379q96 -74 230.5 -171t220.5 -156l86 -60l-217 -241q-129 109 -271.5 232.5t-220.5 193.5l-78 69z" />
<glyph unicode="=" horiz-adv-x="1409" d="M207 637l999 -4q-6 -162 -8 -338q-504 -8 -985 -14q-2 190 -6 356zM207 1174q541 -4 999 -5q4 -166 -8 -340q-489 -12 -985 -14q-2 191 -6 359z" />
<glyph unicode="&#x3e;" horiz-adv-x="1034" d="M109 911q114 113 235 256q346 -289 590 -477q-16 -152 -27 -280q-242 -213 -538 -490q-127 129 -242 242q315 217 522 362z" />
<glyph unicode="?" horiz-adv-x="1441" d="M59 1282l330 375l612 -6q80 -70 170.5 -159t139.5 -142l51 -54l-113 -542q-57 -49 -123.5 -98.5t-105.5 -73.5l-39 -25q-43 6 -78 4t-55 -8l-23 -8l-14 -230h-270l-17 283q47 39 94.5 90t69.5 82l23 33q37 0 96 4t100 8l41 6l23 479q-133 4 -265.5 4.5t-197.5 -1.5h-66 l15 -316l-357 -35zM520 172q150 2 311 -2q-2 -117 -6 -242h-290q-7 129 -15 244z" />
<glyph unicode="@" horiz-adv-x="1757" d="M57 920l353 550l755 72q111 -104 237 -230t195 -200l72 -74l-94 -792q-86 -39 -177 -88t-138 -80l-48 -29q-35 37 -61 66q-43 -27 -86 -59.5t-66 -51.5l-20 -20l-217 6l-217 190l-39 426l219 207l264 6q4 59 -4 115q-49 -2 -369 -21q-20 141 -24 269l397 -21 q68 -59 150 -125.5t131 -105.5l47 -37q-61 -145 -117 -303q-14 -199 -18 -344l186 135q12 113 21.5 263.5t11.5 244.5l4 92q-74 74 -150.5 141.5t-115.5 98.5l-39 30l-531 -24l-252 -338l132 -760l276 -205l393 37l19 -170l-461 -74l-445 320zM750 590l28 -397l193 2l10 397 z" />
<glyph unicode="A" horiz-adv-x="1054" d="M59 1315q133 160 279 293h84q126 0 256 4q147 -150 319 -324q-40 -727 -69 -1360q-58 1 -122 1t-132 -1q4 219 10 422q-150 -6 -248 -12q4 -213 15 -401q-145 -8 -285 -9q-45 631 -107 1387zM367 1284q14 -383 41 -713l274 4q1 103 1 204q0 251 -7 485z" />
<glyph unicode="B" horiz-adv-x="1042" d="M68 1567q299 27 624 39q137 -137 295 -283q-47 -332 -82 -614q-39 -31 -84 -59.5t-69 -43.5l-25 -12q86 -41 225 -94q-14 -215 -16 -377q-127 -92 -258 -203q-231 4 -514 6q-61 879 -96 1641zM373 1307q4 -139 11 -292t13 -237l6 -82q132 0 232 4q16 307 33 607 q-79 1 -153 1t-142 -1zM406 442q2 -180 10 -280q109 0 235 6q2 127 4 266z" />
<glyph unicode="C" horiz-adv-x="1044" d="M59 1247q57 86 120 172t95 129l33 43l371 23l307 -328l-55 -510l-287 -12l31 510l-305 -19q0 -231 2 -500.5t6 -422.5l2 -152h246l14 238l303 -8l-29 -273l-274 -231h-274l-244 262q-16 223 -31.5 492.5t-23.5 429.5z" />
<glyph unicode="D" horiz-adv-x="1058" d="M53 1554q322 39 664 70q156 -160 299 -340q-62 -613 -113 -1094q-119 -129 -239 -256q-31 -2 -82.5 -3t-203.5 -2h-58q-114 0 -197 3q-27 764 -70 1622zM346 1257l21 -1036l280 -2l60 1045q-46 1 -89 1t-83 -1q-80 -2 -134 -4z" />
<glyph unicode="E" horiz-adv-x="958" d="M57 1583l848 14q-8 -178 -18 -352q-297 14 -527 29l15 -545q176 22 416 59l12 -301l-418 -24q4 -158 10 -242q225 8 498 29q-4 -166 -8 -324q-168 -4 -350.5 -4h-280.5l-98 2q-33 764 -99 1659z" />
<glyph unicode="F" horiz-adv-x="935" d="M66 1575q139 8 344.5 14t343.5 8l137 2q-16 -190 -45 -405l-428 43q-14 -317 -15 -571q178 16 385 41l9 -289q-213 -4 -396 -10q2 -276 2 -482l-264 -2q-41 848 -73 1651z" />
<glyph unicode="G" horiz-adv-x="1122" d="M74 1264q166 172 321 329q188 4 420 6q104 -152 236 -301q-4 -139 -15 -272q-81 1 -165 1t-171 -1q9 117 19 244h-53q-133 0 -252 -8q12 -539 16 -1069q197 -4 289 -7q2 98 4 170q-141 -6 -186 -10l4 252l483 -27q-16 -246 -29 -393q-115 -119 -262 -252q-186 -2 -301 -8 q-141 102 -266 242q-45 518 -92 1104z" />
<glyph unicode="H" horiz-adv-x="1060" d="M70 1581l348 8q-8 -207 -14.5 -439t-6.5 -362l-2 -129q115 6 281 15q-8 412 -8 919l350 -6l-78 -1671l-266 6l-2 481q-150 2 -279 3q2 -112 2 -231t-2 -245l-264 -4z" />
<glyph unicode="I" horiz-adv-x="485" d="M59 1599q166 0 367 5q-35 -892 -35 -1674q-72 1 -147 1t-152 -1q-8 846 -33 1669z" />
<glyph unicode="J" horiz-adv-x="1073" d="M98 481q67 3 127 3h29q72 -1 119 -5l49 -2l-14 -262l243 -12l19 1405l336 -15l-82 -1427q-47 -57 -106.5 -121.5t-94.5 -99.5l-35 -35q-53 0 -131 4t-129 8l-51 4q-63 70 -130 138.5t-100 101.5l-34 33z" />
<glyph unicode="K" horiz-adv-x="1019" d="M78 1599l338 7q-5 -126 -5 -216v-30q1 -98 5 -148l4 -51q129 180 256 410q117 -55 260 -135l-492 -760q154 -262 295 -461l207 25l-12 -324l-336 14l-180 295l-4 -293l-279 -12z" />
<glyph unicode="L" horiz-adv-x="784" d="M72 1589l352 10q-16 -373 -26.5 -717.5t-12.5 -502.5l-4 -158l336 29l12 -322h-618z" />
<glyph unicode="M" horiz-adv-x="1355" d="M82 -80q8 387 11 803t3 637v223l320 23q55 -276 119.5 -554t99.5 -417l37 -137q57 246 124.5 523t108.5 433l39 154l309 -25q-6 -419 -7 -835v-158q0 -299 3 -463l2 -205l-276 4l-8 826l-160 -588l-277 6l-157 578q2 -197 2 -379.5t-2 -311.5l-2 -131z" />
<glyph unicode="N" horiz-adv-x="1153" d="M80 1604q109 0 285 6q208 -625 401 -1123q4 522 16 1123q145 -2 312 -8q-39 -811 -76 -1678q-119 -4 -270 -8q-209 506 -361 899q25 -422 39 -895q-154 4 -328 6q-12 748 -18 1678z" />
<glyph unicode="O" horiz-adv-x="1089" d="M76 1255q111 178 268 347q72 -3 171.5 -3t225.5 3q137 -174 271 -371q-47 -549 -70 -1034q-117 -135 -250 -293q-74 2 -311 10q-139 127 -279 301q-6 471 -26 1040zM377 1239q10 -590 14 -1024q74 -2 283 -6q2 61 6 165.5t9 376t5 480.5q-16 2 -43.5 4t-110.5 4 q-42 1 -82.5 1t-80.5 -1z" />
<glyph unicode="P" horiz-adv-x="1093" d="M74 1593l667 21l295 -307l-90 -799q-57 -49 -123.5 -102.5t-105.5 -81.5l-37 -29l-287 14q-4 -199 -4 -387q-117 2 -266 2q-29 868 -49 1669zM393 547l291 6l35 745l-324 -2z" />
<glyph unicode="Q" horiz-adv-x="1144" d="M80 1255q127 170 268 347q104 -3 218.5 -3t240.5 3q137 -174 270 -371q-39 -545 -49 -1034q-121 -133 -250 -273q-14 0 -43 2q2 -10 39 -157q90 0 197 6q5 -71 5 -135t-5 -123q-195 6 -365 14q-35 121 -94 399q-20 2 -62 3t-65 1q-145 141 -279 281q-6 471 -26 1040z M381 1239q10 -590 14 -1024q135 -2 344 -6q2 61 6.5 165.5t9.5 376t5 480.5q-23 2 -60.5 4t-137.5 4q-51 1 -96 1t-85 -1z" />
<glyph unicode="R" horiz-adv-x="1040" d="M61 1589q344 20 641 31l289 -297l-82 -776l-231 -201l104 -139q35 1 66 1h30q42 -1 68 -3l25 -4l-19 -281l-313 12q-53 90 -105.5 189.5t-78.5 152.5l-25 56l-51 2q8 -168 20 -406q-89 -2 -160 -2t-124 2q-14 797 -54 1663zM377 578q129 -8 252 -17l53 756l-303 -10z" />
<glyph unicode="S" horiz-adv-x="1114" d="M68 1341q152 129 288 265q182 8 400 14q137 -139 297 -293q-8 -162 -31 -356q-147 4 -268 4q-1 51 -1 107q0 112 3 243q-207 -16 -357 -25q-1 -73 -1 -146q0 -201 8 -404q172 -2 352 -2q135 -119 266 -234q-14 -201 -16 -362q-139 -127 -271 -244q-168 0 -315 2 q-178 111 -309 225l-9 230l318 4q0 -143 4 -224q139 6 311 19q2 72 2 155t-2 175q-47 1 -98 1q-103 0 -223 -3q-174 119 -334 237q1 60 1 119q0 264 -15 493z" />
<glyph unicode="T" horiz-adv-x="1073" d="M66 1591l940 13l-19 -381l-297 2q-16 -662 -33 -1297q-137 -2 -274 -6q-6 444 -16 1297q-106 -4 -281 -11q-12 199 -20 383z" />
<glyph unicode="U" horiz-adv-x="1085" d="M59 1593q168 4 369 9q-6 -360 -6 -697t6 -651q143 2 287 10q6 600 18 1288q147 0 301 -2q-29 -678 -49 -1296q-131 -158 -268 -350q-125 2 -289 2q-156 162 -309 311q-16 322 -31.5 666t-21.5 526z" />
<glyph unicode="V" horiz-adv-x="1118" d="M53 1548l357 54l159 -1248q45 258 96.5 570.5t79.5 494.5l27 183l297 -43l-330 -1633l-377 -8q-74 344 -150.5 751.5t-117.5 643.5z" />
<glyph unicode="W" horiz-adv-x="1482" d="M70 1587l315 19l43 -1028l160 1011l254 4q39 -236 89 -490.5t81 -393.5l30 -138l52 1031l317 -21l-154 -1657l-327 2q-57 274 -105.5 523t-66.5 360l-21 111q-37 -238 -81 -486t-70 -377l-25 -131l-346 2z" />
<glyph unicode="X" horiz-adv-x="993" d="M63 -66q72 199 141.5 407t102.5 314l35 109q-137 430 -262 809l336 37q16 -90 38.5 -192.5t37.5 -160.5l16 -57q76 223 117 404l305 -35l-305 -805q128 -393 286 -823l-288 -29l-142 461l-125 -469z" />
<glyph unicode="Y" horiz-adv-x="987" d="M51 1593l316 4q-2 -274 -2 -483q0 -315 4 -485l239 -8l13 976l321 -2q-45 -608 -90 -997l-219 -217q-2 -12 -5 -40t-6 -141q-1 -31 -1 -67q0 -91 6 -209q-44 -1 -91 -1q-92 0 -192 3q-8 145 -8 463q-59 55 -115.5 112.5t-83.5 88.5l-26 31z" />
<glyph unicode="Z" horiz-adv-x="1028" d="M51 229q324 526 617 1006q-287 -2 -566 -4q-4 158 -14 373q330 -10 705 -15q94 -169 192 -372q-362 -541 -659 -996q274 18 608 55q-20 -180 -27 -346q-350 -4 -737 -4q-68 160 -119 303z" />
<glyph unicode="[" horiz-adv-x="997" d="M113 1837l741 -6q-8 -102 -19.5 -202.5t-18.5 -152t-7 -55.5l-336 13q0 -229 4 -548t10 -521l5 -203q131 4 301 28l30 -376l-628 -4q-14 446 -35 953t-33 789z" />
<glyph unicode="\" horiz-adv-x="1298" d="M86 1657q134 51 322 125q346 -838 780 -1829q-150 -59 -291 -113q-408 956 -811 1817z" />
<glyph unicode="]" horiz-adv-x="993" d="M143 -195q35 209 45 398q109 -20 226.5 -40t126.5 -22q2 86 5 229.5t7 488.5t4 575q-194 -19 -348 -39q-23 229 -35 436q324 -4 717 -8q-66 -1061 -78 -2026q-346 4 -670 8z" />
<glyph unicode="^" horiz-adv-x="1269" d="M51 1001q111 106 231.5 231.5t188.5 197.5l66 71l247 -24q76 -98 180.5 -222.5t170.5 -197.5l67 -76q-61 -47 -129.5 -107.5t-107.5 -99.5l-39 -37l-279 434l-330 -438q-57 61 -123.5 129t-103.5 105z" />
<glyph unicode="_" horiz-adv-x="870" d="M74 272q387 -12 727 -20q-10 -131 -15 -309q-297 -6 -698 -15q-12 166 -14 344z" />
<glyph unicode="`" horiz-adv-x="706" d="M72 1722q164 82 325 168q123 -238 258 -512q-143 -72 -280 -139q-143 235 -303 483z" />
<glyph unicode="a" horiz-adv-x="1046" d="M70 627q111 84 264 188q59 -6 136 -16.5t122 -16.5l45 -4l12 142l-442 -21q-12 106 -19 266h480q133 -109 243 -204q-23 -203 -40 -404t-23 -299l-6 -100q41 -14 157 -31l-61 -244l-143 80l-400 -90q-125 102 -278 195q-18 244 -47 559zM352 563q6 -217 27 -438 q160 20 235 31q6 184 13 403z" />
<glyph unicode="b" horiz-adv-x="1005" d="M55 1585l316 8l-4 -471q162 18 317 29q121 -109 266 -238q-37 -410 -82 -788q-82 -121 -196 -231q-260 20 -545 45q-39 819 -72 1646zM371 864v-131q0 -323 8 -592q48 -1 95 -1q93 0 177 3q27 408 37 740q-182 -10 -317 -19z" />
<glyph unicode="c" horiz-adv-x="978" d="M66 885q61 59 127.5 128.5t101.5 110.5l37 41l330 -16l266 -264l4 -221l-275 14l-4 178l-291 14l17 -712l246 -11l-2 187l286 -4v-183l-223 -241l-332 -17l-260 244z" />
<glyph unicode="d" horiz-adv-x="983" d="M57 913q74 57 145.5 117t106.5 90l35 31l315 -29q1 51 1 123q0 144 -5 369q141 -6 277 -8l-70 -1667l-506 -45q-59 49 -113.5 106t-78.5 90l-25 35zM340 883l37 -740l270 -2l8 723z" />
<glyph unicode="e" horiz-adv-x="987" d="M59 864q53 70 115 142.5t96 111.5l35 37l393 -16l258 -246l-69 -399l-529 -29q4 -160 4 -313q74 0 139.5 4t94.5 8l29 2l-13 172l287 16l-16 -221q-41 -53 -93.5 -107.5t-84.5 -82.5l-31 -27l-318 -22l-258 227zM348 874l2 -215l307 31l15 193z" />
<glyph unicode="f" horiz-adv-x="886" d="M66 956l163 5q-4 176 -28 391l274 254h381q-16 -205 -39 -404q-162 31 -305 58q-4 -4 -12 -293l317 24l-8 -295q-190 4 -309 6q1 -196 1 -392t-1 -394q-27 -2 -54.5 -2t-51 1t-46 2t-40 3t-31 3t-19.5 3h-8q-2 465 -10 774q-106 -4 -166 -6z" />
<glyph unicode="g" horiz-adv-x="972" d="M63 870q131 147 273 277q137 8 303 8q145 -125 285 -276q-18 -219 -36 -403.5t-29.5 -333t-29.5 -455.5q-119 -117 -235 -215q-152 -2 -262 -2q-115 111 -223 229q8 76 10 172q143 -8 227 -14q-2 -88 -2 -154q58 -1 119 -1t127 1l2 205q-109 2 -221 2q-141 123 -256 235 q-20 360 -52 725zM348 862q14 -352 19 -702q44 -1 86 -1q84 0 157 3q17 487 21 704q-129 0 -283 -4z" />
<glyph unicode="h" horiz-adv-x="1019" d="M80 1599l313 5l-14 -547q35 63 82 112q125 -4 260 -12q117 -166 231 -305q-14 -467 -18 -932q-150 2 -297 6q10 496 16 905q-133 -2 -272 -8q-6 -463 -8 -897q-135 -6 -256 -6q-18 938 -37 1679z" />
<glyph unicode="i" horiz-adv-x="483" d="M76 1618q170 0 344 -4q-6 -135 -12 -309q-154 2 -322 4q-6 170 -10 309zM98 1145l299 -4l-37 -1211h-256z" />
<glyph unicode="j" horiz-adv-x="598" d="M6 -492l2 306l189 6q-9 682 -23 1317q54 -1 104 -1q127 0 236 7q-16 -682 -25 -1327q-143 -156 -256 -285q-129 -14 -227 -23zM164 1618q188 0 364 -4q-6 -135 -14 -309q-172 2 -340 4q-6 170 -10 309z" />
<glyph unicode="k" horiz-adv-x="987" d="M78 1606l334 -2l-29 -852q115 217 201 413q143 -45 282 -112q-63 -76 -150 -188.5t-143 -186.5l-55 -74q106 -227 211 -418l205 7l-19 -273l-327 8q-51 115 -105.5 245t-81.5 204l-28 74l-8 -525l-254 -2q-4 745 -33 1682z" />
<glyph unicode="l" horiz-adv-x="477" d="M90 1597h313q-23 -805 -43 -1677l-247 -2q-4 858 -23 1679z" />
<glyph unicode="m" horiz-adv-x="1406" d="M74 840q117 158 268 315q111 -6 221 -10l105 -168q76 82 166 166q100 2 221 6q115 -115 276 -291q-8 -197 -15 -430t-9 -371l-4 -135q-111 2 -275 4q14 438 19 908q-78 -6 -181 -15q-12 -346 -28 -801q-53 1 -121.5 1t-151.5 -1q0 352 -2 795q-86 4 -196 8q4 -877 4 -899 q-35 1 -99.5 1t-158.5 -1q-25 500 -39 918z" />
<glyph unicode="n" horiz-adv-x="972" d="M76 840q137 147 303 307q209 -4 287 -4q125 -143 241 -299l-35 -918q-104 0 -223 2q0 469 -4 908q-154 0 -272 -9v-144q0 -364 8 -755q-42 1 -109.5 1t-160.5 -1q-14 573 -35 912z" />
<glyph unicode="o" horiz-adv-x="974" d="M63 907q121 131 238 240q143 10 334 22q145 -125 268 -266q-23 -233 -35 -631q-6 -163 -10 -163q-129 -98 -258 -199h-238q-131 90 -262 213q-23 358 -37 784zM350 893q8 -371 17 -758q123 -10 235 -12q10 354 23 772q-55 1 -103 1q-98 0 -172 -3z" />
<glyph unicode="p" horiz-adv-x="950" d="M61 1163l594 8l250 -270l-55 -711q-49 -57 -112.5 -117.5t-102.5 -92.5l-39 -31l-254 -10l-2 -451h-244q-12 776 -35 1675zM356 201h228l24 678l-243 20q-4 -360 -9 -698z" />
<glyph unicode="q" horiz-adv-x="937" d="M45 893q131 139 252 270q252 -4 573 -8l-34 -1675h-265q12 236 19 450q-86 2 -256 11q-123 110 -252 241q-12 330 -37 711zM342 891q-2 -132 -2 -263q0 -219 6 -435h250l12 677q-123 13 -266 21z" />
<glyph unicode="r" horiz-adv-x="808" d="M82 1137h326l-5 -150q74 72 148 146q96 6 205 10q-7 -154 -19 -320q-88 8 -186 17q-43 -39 -84 -79t-59 -61l-19 -20q-12 -365 -14 -754h-277z" />
<glyph unicode="s" horiz-adv-x="1005" d="M86 872q156 170 289 283q137 4 276 10q166 -168 281 -264q4 -72 6 -178q-178 2 -311 10q0 68 2 148q-100 -2 -244 -13q0 -145 4 -239q51 -5 105 -5q65 0 133 7q135 -104 280 -211q-8 -125 -24 -279q-139 -131 -248 -221q-127 -2 -285 -4q-145 131 -241 223q-8 74 -13 135 l289 5q2 -61 2 -121q109 2 234 4l4 213l-234 4q-68 49 -141.5 97t-114.5 73l-41 22q-6 172 -8 301z" />
<glyph unicode="t" horiz-adv-x="876" d="M84 1149l131 -6q0 221 -2 268l301 -10l-10 -254h301q-4 -115 -12 -295q-182 6 -299 10l-9 -690l324 23l8 -281l-334 4q-129 119 -260 232l-8 714q-49 -2 -119 -2z" />
<glyph unicode="u" horiz-adv-x="1064" d="M84 1147q38 0 76 1q117 0 248 -5q-14 -539 -17 -930q109 0 266 2q2 232 2 453t-2 432q162 -2 324 -10q-10 -199 -26.5 -430.5t-28.5 -364.5l-11 -133l136 -41l-62 -211l-125 31q-16 25 -37.5 48t-33.5 36l-13 10q-66 -55 -135 -121l-268 2q-115 104 -256 244 q-10 190 -19.5 437t-13.5 398z" />
<glyph unicode="v" horiz-adv-x="1048" d="M82 1090l317 59l148 -916q37 205 73.5 433.5t55.5 355.5l18 127l295 -33q-66 -295 -137.5 -594t-110.5 -450l-39 -152l-319 -4q-70 287 -145.5 581t-114.5 443z" />
<glyph unicode="w" horiz-adv-x="1232" d="M45 1130l287 15l30 -758l158 696h211q25 -145 59.5 -321t57.5 -281l20 -104l47 760l269 -19q-33 -260 -60.5 -560t-40.5 -468l-12 -170l-305 6q-25 123 -64.5 281t-66.5 252l-27 96q-29 -147 -63.5 -304t-55.5 -241l-20 -84l-305 -6q-23 270 -52.5 573.5t-48.5 469.5z " />
<glyph unicode="x" horiz-adv-x="946" d="M45 -51l281 551q-53 121 -123 275.5t-109 240.5t-39 88q63 18 144.5 34.5t128.5 24.5l49 6l102 -417l119 417q57 -8 125 -22t104 -25l39 -10q-57 -145 -123.5 -296.5t-105.5 -229.5l-39 -78l274 -541l-280 -59q-27 74 -62.5 159t-58.5 134l-20 47l-138 -340z" />
<glyph unicode="y" horiz-adv-x="985" d="M49 1135l336 16q-4 -188 -4 -379q0 -305 10 -616l176 -4q25 438 45 1009q172 -10 332 -18q-86 -760 -176 -1673q-145 6 -252 10q23 213 39 461q-76 -6 -164 -23q-57 39 -124.5 93.5t-106.5 86.5l-39 35z" />
<glyph unicode="z" horiz-adv-x="1015" d="M47 186q291 326 586 664l-527 -8l-8 305q164 -3 345 -3t380 3q80 -153 131 -303q-350 -354 -598 -649q221 2 557 10q-14 -172 -28 -289q-175 3 -357 3t-372 -3q-63 133 -109 270z" />
<glyph unicode="{" horiz-adv-x="1058" d="M182 788q100 92 164 160q-29 100 -68.5 223t-64.5 197l-27 72l424 387l232 -223l-293 -215q18 -98 43.5 -211t42.5 -177l16 -63l-129 -150l129 -122l-92 -455l258 -166q-43 -53 -85 -109.5t-64 -87.5l-21 -30l-416 301l131 502q-82 84 -180 167z" />
<glyph unicode="|" horiz-adv-x="571" d="M100 1726q166 0 367 5q-2 -98 -5 -272.5t-7 -659t-2 -910.5q-186 2 -340 0q10 993 -13 1837z" />
<glyph unicode="}" horiz-adv-x="1073" d="M293 1604q120 117 231 223q229 -215 422 -387q-92 -264 -160 -492l166 -160q-43 -37 -88 -78.5t-69 -66.5l-23 -22l129 -502q-207 -156 -414 -301q-74 109 -170 227q129 86 258 166q-39 209 -92 455q66 61 129 122q-68 84 -129 150q57 229 101 451q-137 102 -291 215z " />
<glyph unicode="~" horiz-adv-x="1200" d="M111 1460q184 119 346 232q137 -135 254 -232q123 74 254 170q70 -119 129 -209q-188 -98 -383 -207q-133 115 -244 216q-94 -76 -201 -173q-81 111 -155 203z" />
<glyph unicode="&#xa0;" />
<glyph unicode="&#xa1;" horiz-adv-x="841" d="M172 -451l86 1276h315l48 -1282zM262 971q2 116 6 243h289q6 -131 14 -245q-147 -2 -309 2z" />
<glyph unicode="&#xa2;" horiz-adv-x="1091" d="M66 885q61 59 122.5 128.5t92.5 110.5l30 41l117 -4q-2 25 -3 76t-1 76q78 0 278 4q-2 -61 -6 -166l88 -2q57 -55 119 -121.5t94 -105.5l33 -37l4 -221l-254 14l-4 178q-12 2 -45 3t-45 1q-10 -348 -16 -713h78l-3 187l267 -4v-183l-203 -241q-20 -2 -72.5 -4t-68.5 -2 v-113q-59 2 -211 0q0 37 -2 104l-121 -2q-74 66 -133.5 126.5t-81.5 88.5l-25 29zM342 870l16 -712q12 -2 46.5 -3t46.5 -1q-2 127 -15 714z" />
<glyph unicode="&#xa3;" horiz-adv-x="1099" d="M66 897l163 4q-4 303 -28 518l274 252h381q-16 -205 -39 -403q-162 31 -305 59q-2 -2 -12 -420l172 4l-4 -262q-88 0 -168 -6q2 -174 2 -448q150 -4 495 -9q-4 -135 -10 -264q-53 -2 -143 -4t-330 -4t-432 -2q-4 156 -10 289q68 -2 176 -2q-6 358 -8 442q-106 -4 -166 -6 z" />
<glyph unicode="&#xa4;" horiz-adv-x="1320" d="M76 973q96 80 192 170q53 -63 148 -178q8 8 21.5 14t21.5 8l10 2l367 8q6 -8 29.5 -20t29.5 -19q72 80 131 170q98 -84 188 -170q-47 -55 -143 -147q8 -8 16.5 -18.5t12.5 -18.5l4 -6l-27 -410q-2 -2 -7 -17t-7 -17q84 -76 151 -150q-88 -80 -184 -174q-43 51 -141 162 l-53 -27l-351 4l-51 25q-82 -94 -158 -164q-102 80 -194 168q53 45 168 145l-25 43l-12 414q4 4 12 22.5t13 22.5q-96 84 -162 158zM492 358l309 4q6 68 11 164.5t7 157.5v64h-321z" />
<glyph unicode="&#xa5;" horiz-adv-x="1075" d="M94 1577q178 0 324 4l4 -670q104 -4 199 -6q23 444 22 680q160 -4 324 -4q-16 -70 -46 -245t-51 -316l-20 -139l-238 -252q139 4 205 8l-4 -240l-192 4q0 -33 4 -110q66 2 192 6l-4 -240l-176 4q4 -31 8 -83t4 -62l-287 2l7 150h-138l-4 219h154q0 41 4 119q-86 4 -154 0 l-4 219l172 2v8q-109 143 -247 278q-23 481 -58 664z" />
<glyph unicode="&#xa6;" horiz-adv-x="839" d="M217 1569q182 -2 381 -4q-10 -371 -16 -645l-349 -9q-10 465 -16 658zM231 559q195 -2 367 -4q-10 -457 -14 -625q-162 -6 -334 -8q-11 451 -19 637z" />
<glyph unicode="&#xa7;" horiz-adv-x="1273" d="M74 61v191l284 -2l-8 -158l295 4l-22 275l-287 -2q-123 117 -240 211l-14 274q61 43 125.5 96.5t99.5 85.5l33 33l-14 301l280 262l338 2q55 -51 119.5 -119.5t99.5 -113.5l37 -43l-8 -197l-262 2l8 189q-90 2 -161.5 0t-117.5 -4l-45 -2l13 -263l295 -2 q59 -49 123.5 -108.5t99.5 -91.5l35 -35l-15 -260l-252 -211l17 -305l-299 -228h-293zM330 840l8 -232l571 -2l-4 236q-299 2 -575 -2z" />
<glyph unicode="&#xa8;" horiz-adv-x="987" d="M100 2081l299 -4l-12 -275l-281 2zM580 2081l299 -4l-11 -275l-282 2z" />
<glyph unicode="&#xa9;" horiz-adv-x="1619" d="M70 999q59 98 125.5 216t103.5 188l37 70l743 114q111 -94 232 -204.5t184 -174.5l66 -61l-62 -936q-123 -125 -315 -332l-45 -47q-150 -2 -279 -2t-217 2l-86 2l-371 316zM352 1001q6 -172 20.5 -365.5t24.5 -301.5l13 -109q47 -45 103 -97t89 -81l35 -29 q133 -2 232.5 -1t158.5 3l57 3q115 151 211 296q8 170 10.5 365t0.5 303l-2 111l-267 248q-123 -12 -249.5 -29t-190.5 -27l-66 -10q-35 -63 -79.5 -133t-71.5 -107zM459 981q51 49 106.5 107.5t85.5 91.5l29 34l276 -14l224 -219l2 -184l-228 10l-6 149l-241 13l14 -598 l205 -9l-2 156l239 -2v-154l-186 -202l-277 -15l-219 207z" />
<glyph unicode="&#xaa;" horiz-adv-x="690" d="M121 1937q55 43 133 95q29 -4 68.5 -8.5t62.5 -8.5l23 -2l6 72l-224 -10q-6 53 -10 133h242q68 -53 123 -103l-35 -403q20 -8 80 -16l-31 -123l-74 39l-200 -46q-63 51 -140 101q-10 121 -24 280zM262 1905q4 -109 14 -222q82 10 119 17q2 92 6 203z" />
<glyph unicode="&#xab;" horiz-adv-x="1329" d="M76 659q94 82 204.5 183.5t174.5 161.5l63 61q45 -43 98.5 -98.5t83.5 -87.5l29 -33q-229 -176 -401 -316q70 -66 168 -149.5t163 -134.5l64 -49l-182 -199l-461 442zM621 659q90 78 199.5 179.5t174.5 165.5l66 61l213 -219q-215 -166 -404 -316q78 -72 176.5 -155.5 t157.5 -130.5l62 -47l-183 -199l-460 442z" />
<glyph unicode="&#xac;" horiz-adv-x="1200" d="M86 776l1030 17v-596l-377 6l19 254l-664 8z" />
<glyph unicode="&#xad;" horiz-adv-x="1058" d="M119 940q403 -8 829 -20q-2 -193 -12 -373q-406 -10 -801 -15q-6 222 -16 408z" />
<glyph unicode="&#xae;" horiz-adv-x="1619" d="M70 999q59 98 125.5 216t103.5 188l37 70l743 114q111 -94 232 -204.5t184 -174.5l66 -61l-62 -936q-123 -125 -315 -332l-45 -47q-150 -2 -279 -2t-217 2l-86 2l-371 316zM352 1001q6 -172 20.5 -365.5t24.5 -301.5l13 -109q47 -45 103 -97t89 -81l35 -29 q133 -2 232.5 -1t158.5 3l57 3q35 45 82 110l-241 8l-162 250l-39 2q6 -106 16 -256q-137 -2 -219 0q-12 502 -41 1047q281 12 510 18q57 -49 109.5 -95t75.5 -69l22 -22l-61 -488l-197 -139l82 -113l162 9q-2 -27 -6 -64t-6.5 -58.5t-2.5 -27.5q59 80 127 184 q8 170 10.5 365t0.5 303l-2 111l-267 248q-123 -12 -249.5 -29t-190.5 -27l-66 -10q-35 -63 -79.5 -133t-71.5 -107zM723 547q117 -4 211 -10l43 475l-252 -6z" />
<glyph unicode="&#xaf;" horiz-adv-x="897" d="M61 2097q389 -10 758 -12q-4 -135 -12 -264q-356 -14 -733 -25q-9 141 -13 301z" />
<glyph unicode="&#xb0;" horiz-adv-x="636" d="M68 2064l159 148l187 4q31 -33 72.5 -71t66.5 -60l27 -23l-17 -198q-29 -37 -65.5 -75t-59.5 -56l-24 -21l-176 2q-37 31 -78 68t-62 57l-22 23zM240 1864l153 2l10 184h-159z" />
<glyph unicode="&#xb1;" horiz-adv-x="1507" d="M127 217q92 -2 238.5 -6t481.5 -9t527 -5q-8 -76 -14 -248q-817 -6 -1221 -15q-4 101 -12 283zM154 844q399 -10 411 -10q-4 100 -8 296q207 4 383 11q-14 -251 -14 -312q217 -2 415 -2q-8 -84 -12 -235q-233 0 -407 -2q-2 -106 -2 -283q-180 6 -351 10v269 q-195 -4 -403 -8q-4 109 -12 266z" />
<glyph unicode="&#xb2;" horiz-adv-x="534" d="M76 2132q57 61 98 109q86 2 182 6q60 -56 113 -111q-12 -123 -29 -256q-51 -49 -112 -102q-70 2 -129 6q2 -72 6 -82q96 8 221 18q-2 -59 -8 -121q-80 0 -322 -4q-4 96 -14 193q53 47 108 104q68 2 132 0q10 94 14 232q-35 0 -137 2q6 -61 14 -166q-68 -4 -133 -4 q-2 61 -4 176z" />
<glyph unicode="&#xb3;" horiz-adv-x="522" d="M51 1694l4 118l127 -4l-4 -104l152 2l-11 178l-126 8l4 113l118 8l2 123l-186 -8l-16 125l204 2l107 -98l4 -146l-74 -51l68 -62l29 -196q-23 -16 -48.5 -42t-39.5 -42l-17 -19l-180 7q-27 12 -55.5 34.5t-44.5 38.5z" />
<glyph unicode="&#xb4;" horiz-adv-x="657" d="M51 1845l336 322l217 -228q-78 -57 -165 -125.5t-136 -109.5l-49 -39z" />
<glyph unicode="&#xb5;" horiz-adv-x="1105" d="M84 1147q170 2 344 -4l-2 -43q0 -33 -4 -204t-7 -355.5t-3 -327.5q109 0 266 2q4 463 0 885q162 -2 323 -10q-10 -199 -26.5 -430.5t-28.5 -364.5l-10 -133l135 -41l-61 -211l-125 31q-16 25 -38 48t-34 36l-12 10q-66 -55 -135 -121l-269 2l-2 2l-10 -432l-268 -2 q4 432 -11 975z" />
<glyph unicode="&#xb6;" horiz-adv-x="1110" d="M59 1411q141 82 283 168l707 4l-11 -1673h-245q0 324 -8.5 690.5t-14.5 570.5l-8 205h-131l2 -1460h-281l21 809q-137 76 -283 172q-25 266 -31 514z" />
<glyph unicode="&#xb7;" horiz-adv-x="997" d="M289 803l418 -6q0 -86 -3.5 -181.5t-7.5 -148.5l-4 -53l-393 4z" />
<glyph unicode="&#xb8;" horiz-adv-x="516" d="M55 -193q33 56 64 111h149l-59 -102h102q70 -51 133 -105q-6 -80 -14 -149q-135 -2 -268 -2q-4 53 -6 102q84 -2 137 -2q2 23 2 47q-49 4 -125 10q-53 35 -115 90z" />
<glyph unicode="&#xb9;" horiz-adv-x="444" d="M111 2210q108 4 198 0q-16 -285 -22 -615q-59 2 -121 2q14 274 29 488q-35 4 -78 0q-6 61 -6 125z" />
<glyph unicode="&#xba;" horiz-adv-x="569" d="M100 2073q47 63 105 125q74 -2 164 0q57 -63 106 -134q-18 -198 -26 -372q-49 -49 -97 -107q-49 0 -135 4q-57 45 -106 109q-2 170 -11 375zM215 2066q4 -213 6 -368q49 0 125 -2l6 368z" />
<glyph unicode="&#xbb;" horiz-adv-x="1382" d="M76 197q229 178 393 307l-377 342q97 107 199 205q244 -221 452 -412q-8 -117 -16 -227q-209 -180 -465 -414q-92 109 -186 199zM633 197q240 180 393 307l-377 342q97 107 199 205q240 -227 452 -412q-6 -117 -16 -227q-209 -180 -467 -414q-92 109 -184 199z" />
<glyph unicode="&#xbc;" horiz-adv-x="1386" d="M111 1667q164 4 303 0q-27 -434 -35 -932q-90 2 -184 2q25 418 45 742q-53 4 -119 -2q-10 94 -10 190zM180 -47q170 408 353.5 858.5t281.5 695.5l98 248q66 -20 122.5 -42.5t80.5 -33.5l25 -12q-182 -401 -378 -847.5t-300 -692.5l-105 -246q-53 16 -98 33.5t-63 28.5z M737 301l39 442l180 -22l-45 -406l174 21l19 491l164 -2q-10 -344 -15.5 -573t-5.5 -289v-57h-184l16 274l-178 -24q-41 33 -82 68.5t-61 56.5z" />
<glyph unicode="&#xbd;" horiz-adv-x="1386" d="M111 1667q164 4 303 0q-27 -434 -35 -932q-90 2 -184 2q25 418 45 742q-53 4 -119 -2q-10 94 -10 190zM180 -47q170 408 353.5 858.5t281.5 695.5l98 248q66 -20 122.5 -42.5t80.5 -33.5l25 -12q-182 -401 -378 -847.5t-300 -692.5l-105 -246q-53 16 -98 33.5t-63 28.5z M750 643q80 86 137 154q121 4 256 8q86 -76 160 -158q-16 -174 -39 -358q-74 -72 -158 -148q-100 4 -184 11q4 -102 8 -117q137 12 311 28q-2 -84 -10 -169q-113 0 -455 -7q-6 135 -18 271q76 68 153 145q94 4 185 0q14 133 20 330q-49 0 -194 2q10 -88 18 -234 q-92 -6 -186 -6q0 86 -4 248z" />
<glyph unicode="&#xbe;" horiz-adv-x="1517" d="M68 877l4 167l180 -6l-4 -149l215 2l-14 254l-181 14l6 158l168 10l4 176l-266 -12l-22 178l291 4l151 -139l6 -207l-104 -74q16 -18 40.5 -39.5t39.5 -33.5l16 -13l41 -280q-31 -25 -69 -60.5t-58 -60.5l-23 -25l-258 9q-37 18 -77.5 49.5t-63.5 54.5zM315 -47 q170 408 353.5 858.5t281.5 695.5l99 248q66 -20 122 -42.5t80 -33.5l25 -12q-182 -401 -378 -847.5t-300 -692.5l-104 -246q-53 16 -98.5 33.5t-63.5 28.5zM872 301l39 442l181 -22l-45 -406l174 21l18 491l164 -2q-12 -344 -17.5 -574.5t-5.5 -287.5l2 -57h-184l16 274 l-178 -24q-41 33 -82 68.5t-61 56.5z" />
<glyph unicode="&#xbf;" horiz-adv-x="1482" d="M78 -150l72 498q63 53 140 107.5t124 81.5l45 28l155 -26l15 288h270l16 -323l-268 -223l-176 22q-10 -96 -16 -211t-6 -180v-66q133 -4 270 -4t207 2h71l-14 312l356 34l41 -325l-329 -377l-633 6q-82 80 -167 169t-128 138zM608 973q2 117 6 244h291q7 -131 15 -244 q-150 -4 -312 0z" />
<glyph unicode="&#xc0;" horiz-adv-x="1054" d="M59 1315q133 160 279 293q166 -2 340 4q147 -150 319 -324q-40 -727 -69 -1360q-117 2 -254 0q4 219 10 422q-150 -6 -248 -12q4 -213 15 -401q-145 -8 -285 -9q-45 631 -107 1387zM268 1921q86 121 189 246q168 -143 358 -295q-101 -127 -160 -207q-172 115 -387 256z M367 1284q14 -383 41 -713l274 4q4 362 -6 689z" />
<glyph unicode="&#xc1;" horiz-adv-x="1054" d="M59 1315q133 160 279 293q166 -2 340 4q147 -150 319 -324q-40 -727 -69 -1360q-117 2 -254 0q4 219 10 422q-150 -6 -248 -12q4 -213 15 -401q-145 -8 -285 -9q-45 631 -107 1387zM256 1845l336 322l217 -228q-78 -57 -165 -125.5t-136 -109.5l-49 -39zM367 1284 q14 -383 41 -713l274 4q4 362 -6 689z" />
<glyph unicode="&#xc2;" horiz-adv-x="1054" d="M59 1315q133 160 279 293q166 -2 340 4q147 -150 319 -324q-40 -727 -69 -1360q-117 2 -254 0q4 219 10 422q-150 -6 -248 -12q4 -213 15 -401q-145 -8 -285 -9q-45 631 -107 1387zM106 1843l304 342h231l277 -342q-31 -27 -70 -65.5t-62 -63.5l-22 -24l-238 311 l-262 -307zM367 1284q14 -383 41 -713l274 4q4 362 -6 689z" />
<glyph unicode="&#xc3;" horiz-adv-x="1054" d="M45 1919q184 111 358 225q121 -127 226 -225q125 66 250 166q57 -102 122 -203q-199 -100 -372 -203q-125 102 -238 209q-86 -82 -194 -168l-23 31q-23 31 -60.5 80t-68.5 88zM59 1315q133 160 279 293q166 -2 340 4q147 -150 319 -324q-40 -727 -69 -1360q-117 2 -254 0 q4 219 10 422q-150 -6 -248 -12q4 -213 15 -401q-145 -8 -285 -9q-45 631 -107 1387zM367 1284q14 -383 41 -713l274 4q4 362 -6 689z" />
<glyph unicode="&#xc4;" horiz-adv-x="1054" d="M59 1315q133 160 279 293q166 -2 340 4q147 -150 319 -324q-40 -727 -69 -1360q-117 2 -254 0q4 219 10 422q-150 -6 -248 -12q4 -213 15 -401q-145 -8 -285 -9q-45 631 -107 1387zM174 2034l266 -6l-10 -275l-250 4zM367 1284q14 -383 41 -713l274 4q4 362 -6 689z M602 2034l266 -6l-10 -275l-250 4z" />
<glyph unicode="&#xc5;" horiz-adv-x="1054" d="M59 1315q133 160 279 293q166 -2 340 4q147 -150 319 -324q-40 -727 -69 -1360q-117 2 -254 0q4 219 10 422q-150 -6 -248 -12q4 -213 15 -401q-145 -8 -285 -9q-45 631 -107 1387zM272 2064l160 148l186 4q31 -33 73 -71t67 -60l26 -23l-16 -198q-29 -37 -65.5 -75 t-59.5 -56l-25 -21l-176 2q-37 31 -77.5 68t-61.5 57l-22 23zM367 1284q14 -383 41 -713l274 4q4 362 -6 689zM444 1864l154 2l10 184h-159z" />
<glyph unicode="&#xc6;" horiz-adv-x="1509" d="M63 563l398 1026q459 10 973 27q6 -181 0 -363q-295 18 -519 27v-559q229 18 478 33l2 -281h-475q6 -121 10 -246q238 20 508 41q12 -182 12 -338q-319 0 -815 -8q0 209 -6 414q-127 0 -271 4q16 -219 33 -406q-90 -8 -293 -8q-14 303 -35 637zM354 588l273 -25 q3 366 -9 735q-158 -391 -264 -710z" />
<glyph unicode="&#xc7;" horiz-adv-x="1044" d="M59 1247q57 86 120 172t95 129l33 43l371 23l307 -328l-55 -510l-287 -12l31 510l-305 -19q0 -231 2 -500.5t6 -422.5l2 -152h246l14 238l303 -8l-29 -273l-274 -231h-64q-27 -45 -51 -88h107l139 -109l-14 -155l-281 -3l-6 107l143 -2l2 49h-118l-131 105q12 20 31.5 55 t23.5 41h-55l-244 262q-16 223 -31.5 492.5t-23.5 429.5z" />
<glyph unicode="&#xc8;" horiz-adv-x="958" d="M57 1583l848 14q-8 -178 -18 -352q-297 14 -527 29l15 -545q176 22 416 59l12 -301l-418 -24q4 -158 10 -242q225 8 498 29q-4 -166 -8 -324q-168 -4 -350.5 -4h-280.5l-98 2q-33 764 -99 1659zM207 1921q86 121 188 246q168 -143 359 -295q-101 -127 -160 -207 q-172 115 -387 256z" />
<glyph unicode="&#xc9;" horiz-adv-x="958" d="M57 1583l848 14q-8 -178 -18 -352q-297 14 -527 29l15 -545q176 22 416 59l12 -301l-418 -24q4 -158 10 -242q225 8 498 29q-4 -166 -8 -324q-168 -4 -350.5 -4h-280.5l-98 2q-33 764 -99 1659zM215 1845l336 322l217 -228q-78 -57 -165 -125.5t-136 -109.5l-49 -39z" />
<glyph unicode="&#xca;" horiz-adv-x="958" d="M57 1583l848 14q-8 -178 -18 -352q-297 14 -527 29l15 -545q176 22 416 59l12 -301l-418 -24q4 -158 10 -242q225 8 498 29q-4 -166 -8 -324q-168 -4 -350.5 -4h-280.5l-98 2q-33 764 -99 1659zM86 1843l303 342h232l276 -342q-31 -27 -70 -65.5t-61 -63.5l-23 -24 l-237 311l-262 -307z" />
<glyph unicode="&#xcb;" horiz-adv-x="958" d="M57 1583l848 14q-8 -178 -18 -352q-297 14 -527 29l15 -545q176 22 416 59l12 -301l-418 -24q4 -158 10 -242q225 8 498 29q-4 -166 -8 -324q-168 -4 -350.5 -4h-280.5l-98 2q-33 764 -99 1659zM133 2034l266 -6l-10 -275l-250 4zM561 2034l266 -6l-10 -275l-250 4z" />
<glyph unicode="&#xcc;" horiz-adv-x="677" d="M66 1921q86 121 188 246q168 -143 358 -295q-100 -127 -159 -207q-172 115 -387 256zM162 1599q166 0 366 5q-34 -892 -34 -1674q-145 2 -299 0q-8 846 -33 1669z" />
<glyph unicode="&#xcd;" horiz-adv-x="686" d="M70 1845l336 322l217 -228q-78 -57 -165 -125.5t-136 -109.5l-50 -39zM162 1599q166 0 366 5q-34 -892 -34 -1674q-145 2 -299 0q-8 846 -33 1669z" />
<glyph unicode="&#xce;" horiz-adv-x="905" d="M43 1843l303 342h232l276 -342q-31 -27 -70 -65.5t-61 -63.5l-23 -24l-237 311l-262 -307zM262 1599q166 0 367 5q-35 -892 -35 -1674q-145 2 -299 0q-8 846 -33 1669z" />
<glyph unicode="&#xcf;" horiz-adv-x="808" d="M51 2034l266 -6l-10 -275l-250 4zM203 1599q166 0 366 5q-34 -892 -34 -1674q-145 2 -299 0q-8 846 -33 1669zM479 2034l266 -6l-10 -275l-250 4z" />
<glyph unicode="&#xd0;" horiz-adv-x="1134" d="M39 889q49 -2 104 -6q-12 334 -30 671q319 39 663 70q156 -160 299 -340q-61 -613 -112 -1094q-119 -129 -240 -256q-31 -2 -82 -3t-202.5 -2t-256.5 3q-10 272 -26 676l-107 -2q-4 154 -10 283zM403 1257q8 -270 11 -383h131q-6 -133 -8 -258l-117 -2l6 -393l281 -2 l59 1045q-94 2 -174 0t-133 -4z" />
<glyph unicode="&#xd1;" horiz-adv-x="1153" d="M80 1604q109 0 285 6q208 -625 401 -1123q4 522 16 1123q145 -2 312 -8q-39 -811 -76 -1678q-119 -4 -270 -8q-209 506 -361 899q25 -422 39 -895q-154 4 -328 6q-12 748 -18 1678zM96 1919q184 111 359 225q121 -127 225 -225q125 66 250 166q57 -102 123 -203 q-199 -100 -373 -203q-125 102 -238 209q-86 -82 -194 -168l-23 31q-23 31 -60.5 80t-68.5 88z" />
<glyph unicode="&#xd2;" horiz-adv-x="1089" d="M76 1255q111 178 268 347q145 -6 397 0q137 -174 271 -371q-47 -549 -70 -1034q-117 -135 -250 -293q-74 2 -311 10q-139 127 -279 301q-6 471 -26 1040zM268 1921q86 121 189 246q168 -143 358 -295q-101 -127 -160 -207q-172 115 -387 256zM377 1239q10 -590 14 -1024 q74 -2 283 -6q2 61 6 165.5t9 376t5 480.5q-16 2 -43.5 4t-110.5 4t-163 0z" />
<glyph unicode="&#xd3;" horiz-adv-x="1089" d="M76 1255q111 178 268 347q145 -6 397 0q137 -174 271 -371q-47 -549 -70 -1034q-117 -135 -250 -293q-74 2 -311 10q-139 127 -279 301q-6 471 -26 1040zM256 1845l336 322l217 -228q-78 -57 -165 -125.5t-136 -109.5l-49 -39zM377 1239q10 -590 14 -1024q74 -2 283 -6 q2 61 6 165.5t9 376t5 480.5q-16 2 -43.5 4t-110.5 4t-163 0z" />
<glyph unicode="&#xd4;" horiz-adv-x="1089" d="M76 1255q111 178 268 347q145 -6 397 0q137 -174 271 -371q-47 -549 -70 -1034q-117 -135 -250 -293q-74 2 -311 10q-139 127 -279 301q-6 471 -26 1040zM147 1843l304 342h231l276 -342q-31 -27 -69.5 -65.5t-61.5 -63.5l-22 -24l-238 311l-262 -307zM377 1239 q10 -590 14 -1024q74 -2 283 -6q2 61 6 165.5t9 376t5 480.5q-16 2 -43.5 4t-110.5 4t-163 0z" />
<glyph unicode="&#xd5;" horiz-adv-x="1089" d="M66 1919q184 111 358 225q121 -127 225 -225q125 66 250 166q57 -102 123 -203q-199 -100 -373 -203q-125 102 -237 209q-86 -82 -195 -168l-22 31q-23 31 -60.5 80t-68.5 88zM76 1255q111 178 268 347q145 -6 397 0q137 -174 271 -371q-47 -549 -70 -1034 q-117 -135 -250 -293q-74 2 -311 10q-139 127 -279 301q-6 471 -26 1040zM377 1239q10 -590 14 -1024q74 -2 283 -6q2 61 6 165.5t9 376t5 480.5q-16 2 -43.5 4t-110.5 4t-163 0z" />
<glyph unicode="&#xd6;" horiz-adv-x="1089" d="M76 1255q111 178 268 347q145 -6 397 0q137 -174 271 -371q-47 -549 -70 -1034q-117 -135 -250 -293q-74 2 -311 10q-139 127 -279 301q-6 471 -26 1040zM195 2034l266 -6l-10 -275l-250 4zM377 1239q10 -590 14 -1024q74 -2 283 -6q2 61 6 165.5t9 376t5 480.5 q-16 2 -43.5 4t-110.5 4t-163 0zM623 2034l266 -6l-10 -275l-250 4z" />
<glyph unicode="&#xd7;" horiz-adv-x="1173" d="M131 406q39 35 126 123.5t140 138.5q-143 143 -262 258q102 98 199 186q203 -203 254 -248q123 119 260 264q98 -106 196 -204q-178 -180 -256 -256q125 -135 259 -262q-104 -102 -205 -197q-199 211 -254 262q-152 -154 -273 -264q-86 104 -184 199z" />
<glyph unicode="&#xd8;" horiz-adv-x="1089" d="M61 -111q14 35 55.5 117t55.5 119q-10 12 -35.5 43t-40.5 47q-6 471 -26 1040q113 178 270 347q145 -6 395 0q20 -25 51 -68l91 199l225 -82q-29 -63 -156 -334q41 -57 60 -86q-47 -549 -70 -1034q-117 -135 -248 -293q-74 2 -313 10q-20 20 -58 55q-16 -35 -35.5 -71.5 t-31.5 -55.5l-12 -18q-53 16 -97.5 32.5t-62.5 24.5zM371 1239q6 -299 10 -627q59 139 164.5 379t105.5 242q-111 8 -280 6zM434 215q68 -4 234 -6q10 240 16 539q-168 -360 -250 -533z" />
<glyph unicode="&#xd9;" horiz-adv-x="1085" d="M59 1593q168 4 369 9q-12 -719 0 -1348q143 2 287 10q6 600 18 1288q147 0 301 -2q-29 -678 -49 -1296q-131 -158 -268 -350q-125 2 -289 2q-156 162 -309 311q-16 322 -31.5 666t-21.5 526zM268 1921q86 121 189 246q168 -143 358 -295q-101 -127 -160 -207 q-172 115 -387 256z" />
<glyph unicode="&#xda;" horiz-adv-x="1085" d="M59 1593q168 4 369 9q-12 -719 0 -1348q143 2 287 10q6 600 18 1288q147 0 301 -2q-29 -678 -49 -1296q-131 -158 -268 -350q-125 2 -289 2q-156 162 -309 311q-16 322 -31.5 666t-21.5 526zM256 1845l336 322l217 -228q-78 -57 -165 -125.5t-136 -109.5l-49 -39z" />
<glyph unicode="&#xdb;" horiz-adv-x="1085" d="M59 1593q168 4 369 9q-12 -719 0 -1348q143 2 287 10q6 600 18 1288q147 0 301 -2q-29 -678 -49 -1296q-131 -158 -268 -350q-125 2 -289 2q-156 162 -309 311q-16 322 -31.5 666t-21.5 526zM147 1843l304 342h231l276 -342q-31 -27 -69.5 -65.5t-61.5 -63.5l-22 -24 l-238 311l-262 -307z" />
<glyph unicode="&#xdc;" horiz-adv-x="1085" d="M59 1593q168 4 369 9q-12 -719 0 -1348q143 2 287 10q6 600 18 1288q147 0 301 -2q-29 -678 -49 -1296q-131 -158 -268 -350q-125 2 -289 2q-156 162 -309 311q-16 322 -31.5 666t-21.5 526zM195 2034l266 -6l-10 -275l-250 4zM623 2034l266 -6l-10 -275l-250 4z" />
<glyph unicode="&#xdd;" horiz-adv-x="987" d="M51 1593l316 4q-4 -684 2 -968l239 -8l13 976l321 -2q-45 -608 -90 -997l-240 -217q0 -100 15 -457q-133 -2 -283 2q12 145 12 463l-245 232zM256 1845l336 322l217 -228q-78 -57 -165 -125.5t-136 -109.5l-49 -39z" />
<glyph unicode="&#xde;" horiz-adv-x="983" d="M68 1583q156 -4 299 0l-2 -272q188 2 297 4q125 -115 272 -256q-41 -289 -68 -623q-125 -121 -243 -219q-141 0 -258 -6l-5 -291l-270 2zM365 455l258 -2q2 27 5 74.5t7 199t2 303.5q-129 -2 -272 -4v-571z" />
<glyph unicode="&#xdf;" horiz-adv-x="1003" d="M68 1374l237 211l357 8l292 -268l-63 -627q-80 -39 -158 -67l219 -90l-8 -394q-51 -49 -116.5 -104t-106.5 -86l-39 -31l-184 2q6 33 13 118t11 126l133 -2l23 268l-178 82l-37 187q43 23 86 49t65 41l21 14q8 66 17.5 192.5t15.5 221.5l6 92h-297q0 -352 20 -1387 l-262 -2z" />
<glyph unicode="&#xe0;" horiz-adv-x="1042" d="M70 627q111 84 264 188q59 -6 136 -16.5t122 -16.5l45 -4l12 142l-442 -21q-12 106 -19 266h480q133 -109 243 -204q-23 -203 -40 -404t-23 -299l-6 -100q41 -14 157 -31l-61 -244l-143 80l-400 -90q-125 102 -278 195q-18 244 -47 559zM248 1479q86 121 188 245 q168 -143 359 -294q-101 -127 -160 -207q-172 115 -387 256zM352 563q6 -217 27 -438q160 20 235 31q6 184 13 403z" />
<glyph unicode="&#xe1;" horiz-adv-x="1046" d="M70 627q111 84 264 188q59 -6 136 -16.5t122 -16.5l45 -4l12 142l-442 -21q-12 106 -19 266h480q133 -109 243 -204q-23 -203 -40 -404t-23 -299l-6 -100q41 -14 157 -31l-61 -244l-143 80l-400 -90q-125 102 -278 195q-18 244 -47 559zM256 1395l336 321l217 -227 q-78 -57 -165 -126t-136 -110l-49 -39zM352 563q6 -217 27 -438q160 20 235 31q6 184 13 403z" />
<glyph unicode="&#xe2;" horiz-adv-x="1046" d="M70 627q111 84 264 188q59 -6 136 -16.5t122 -16.5l45 -4l12 142l-442 -21q-12 106 -19 266h480q133 -109 243 -204q-23 -203 -40 -404t-23 -299l-6 -100q41 -14 157 -31l-61 -244l-143 80l-400 -90q-125 102 -278 195q-18 244 -47 559zM106 1376l304 342h231l277 -342 q-31 -27 -70 -65.5t-62 -63.5l-22 -24l-238 311l-262 -307zM352 563q6 -217 27 -438q160 20 235 31q6 184 13 403z" />
<glyph unicode="&#xe3;" horiz-adv-x="1046" d="M45 1438q184 111 358 225q121 -127 226 -225q125 66 250 166q57 -102 122 -203q-199 -100 -372 -203q-125 102 -238 211q-86 -84 -194 -170l-23 31q-23 31 -60.5 80t-68.5 88zM70 627q111 84 264 188q59 -6 136 -16.5t122 -16.5l45 -4l12 142l-442 -21q-12 106 -19 266 h480q133 -109 243 -204q-23 -203 -40 -404t-23 -299l-6 -100q41 -14 157 -31l-61 -244l-143 80l-400 -90q-125 102 -278 195q-18 244 -47 559zM352 563q6 -217 27 -438q160 20 235 31q6 184 13 403z" />
<glyph unicode="&#xe4;" horiz-adv-x="1044" d="M70 627q111 84 264 188q59 -6 136 -16.5t122 -16.5l45 -4l12 142l-442 -21q-12 106 -19 266h480q133 -109 243 -204q-23 -203 -40 -404t-23 -299l-6 -100q41 -14 157 -31l-61 -244l-143 80l-400 -90q-125 102 -278 195q-18 244 -47 559zM174 1567l266 -4l-10 -275l-250 2 zM352 563q6 -217 27 -438q160 20 235 31q6 184 13 403zM602 1567l266 -4l-10 -275l-250 2z" />
<glyph unicode="&#xe5;" horiz-adv-x="1038" d="M70 627q111 84 264 188q59 -6 136 -16.5t122 -16.5l45 -4l12 142l-442 -21q-12 106 -19 266h480q133 -109 243 -204q-23 -203 -40 -404t-23 -299l-6 -100q41 -14 157 -31l-61 -244l-143 80l-400 -90q-125 102 -278 195q-18 244 -47 559zM272 1593l160 148l186 4 q31 -33 73 -71t67 -60l26 -23l-16 -198q-29 -37 -65.5 -75t-59.5 -56l-25 -21l-176 2q-37 31 -77.5 68t-61.5 57l-22 23zM352 563q6 -217 27 -438q160 20 235 31q6 184 13 403zM444 1393l154 2l10 184h-159z" />
<glyph unicode="&#xe6;" horiz-adv-x="1648" d="M59 627q111 84 265 188q59 -6 137 -16.5t123 -16.5l45 -4l10 142l-440 -21q-14 106 -19 266h479q78 -66 166 -139l117 129l393 -16l258 -246l-69 -399l-529 -29q4 -160 4 -313q74 0 139.5 4t94.5 8l29 2l-13 172l287 16l-16 -221q-41 -53 -93.5 -107.5t-83.5 -82.5 l-32 -27l-318 -22l-166 145l-43 -76l-399 -90q-125 102 -279 195q-18 244 -47 559zM342 563q8 -217 27 -438q162 20 237 31q4 184 12 403zM985 874l2 -215l307 31l15 193z" />
<glyph unicode="&#xe7;" horiz-adv-x="978" d="M66 885q61 59 127.5 128.5t101.5 110.5l37 41l330 -16l266 -264l4 -221l-275 14l-4 178l-291 14l17 -712l246 -11l-2 187l286 -4v-183l-223 -241q-25 -2 -78 -5t-80 -5q-4 -8 -20 -36t-25 -42h107l139 -109l-14 -155l-281 -3l-6 107l143 -2l2 49h-118l-131 105 q23 37 47 79h-17l-260 244z" />
<glyph unicode="&#xe8;" horiz-adv-x="987" d="M59 864q53 70 115 142.5t96 111.5l35 37l393 -16l258 -246l-69 -399l-529 -29q4 -160 4 -313q74 0 139.5 4t94.5 8l29 2l-13 172l287 16l-16 -221q-41 -53 -93.5 -107.5t-84.5 -82.5l-31 -27l-318 -22l-258 227zM248 1479q86 121 188 245q168 -143 359 -294 q-101 -127 -160 -207q-172 115 -387 256zM348 874l2 -215l307 31l15 193z" />
<glyph unicode="&#xe9;" horiz-adv-x="987" d="M59 864q53 70 115 142.5t96 111.5l35 37l393 -16l258 -246l-69 -399l-529 -29q4 -160 4 -313q74 0 139.5 4t94.5 8l29 2l-13 172l287 16l-16 -221q-41 -53 -93.5 -107.5t-84.5 -82.5l-31 -27l-318 -22l-258 227zM256 1395l336 321l217 -227q-78 -57 -165 -126t-136 -110 l-49 -39zM348 874l2 -215l307 31l15 193z" />
<glyph unicode="&#xea;" horiz-adv-x="987" d="M59 864q53 70 115 142.5t96 111.5l35 37l393 -16l258 -246l-69 -399l-529 -29q4 -160 4 -313q74 0 139.5 4t94.5 8l29 2l-13 172l287 16l-16 -221q-41 -53 -93.5 -107.5t-84.5 -82.5l-31 -27l-318 -22l-258 227zM86 1376l303 342h232l276 -342q-31 -27 -70 -65.5 t-61 -63.5l-23 -24l-237 311l-262 -307zM348 874l2 -215l307 31l15 193z" />
<glyph unicode="&#xeb;" horiz-adv-x="987" d="M59 864q53 70 115 142.5t96 111.5l35 37l393 -16l258 -246l-69 -399l-529 -29q4 -160 4 -313q74 0 139.5 4t94.5 8l29 2l-13 172l287 16l-16 -221q-41 -53 -93.5 -107.5t-84.5 -82.5l-31 -27l-318 -22l-258 227zM154 1567l266 -4l-10 -275l-250 2zM348 874l2 -215l307 31 l15 193zM582 1567l266 -4l-10 -275l-250 2z" />
<glyph unicode="&#xec;" horiz-adv-x="720" d="M98 1479q86 121 189 245q168 -143 358 -294q-101 -127 -160 -207q-172 115 -387 256zM217 1145l297 -4l-37 -1211h-254z" />
<glyph unicode="&#xed;" horiz-adv-x="720" d="M84 1395l336 321l217 -227q-78 -57 -165 -126t-136 -110l-49 -39zM217 1145l297 -4l-37 -1211h-254z" />
<glyph unicode="&#xee;" horiz-adv-x="843" d="M14 1376l303 342h232l276 -342q-31 -27 -69.5 -65.5t-61.5 -63.5l-22 -24l-238 311l-262 -307zM264 1145l299 -4l-37 -1211h-256z" />
<glyph unicode="&#xef;" horiz-adv-x="843" d="M68 1567l266 -4l-10 -275l-250 2zM264 1145l299 -4l-37 -1211h-256zM496 1567l266 -4l-10 -275l-250 2z" />
<glyph unicode="&#xf0;" horiz-adv-x="1128" d="M63 748q57 72 124 147.5t106 116.5l39 39q70 -10 162 -20.5t149 -14.5l59 -4q-20 49 -47.5 105.5t-44.5 86.5l-16 31q-39 -16 -75 -35.5t-87 -48.5t-94 -51q-68 82 -127 188q135 47 264 115q-16 25 -60 84t-79 106l-37 47l186 158l203 -250q111 66 193 113 q75 -95 163 -201q-115 -63 -223 -125l240 -393q-12 -166 -36 -371.5t-42 -328.5l-18 -123l-271 -217l-291 -6q-63 51 -133.5 113.5t-109.5 96.5l-39 37zM358 739l35 -571l330 6q0 86 27 561z" />
<glyph unicode="&#xf1;" horiz-adv-x="972" d="M25 1438q184 111 358 225q121 -127 225 -225q125 66 250 166q57 -102 123 -203q-199 -100 -373 -203q-125 102 -237 211q-86 -84 -195 -170l-22 31q-23 31 -60.5 80t-68.5 88zM76 840q137 147 303 307q209 -4 287 -4q125 -143 241 -299l-35 -918q-104 0 -223 2 q0 469 -4 908q-154 0 -272 -9q-2 -430 8 -899q-84 2 -270 0q-14 573 -35 912z" />
<glyph unicode="&#xf2;" horiz-adv-x="980" d="M63 907q121 131 238 240q143 10 334 22q145 -125 268 -266q-23 -233 -35 -631q-6 -163 -10 -163q-129 -98 -258 -199h-238q-131 90 -262 213q-23 358 -37 784zM207 1479q86 121 188 245q168 -143 359 -294q-101 -127 -160 -207q-172 115 -387 256zM350 893 q8 -371 17 -758q123 -10 235 -12q10 354 23 772q-164 2 -275 -2z" />
<glyph unicode="&#xf3;" horiz-adv-x="966" d="M63 907q121 131 238 240q143 10 334 22q145 -125 268 -266q-23 -233 -35 -631q-6 -163 -10 -163q-129 -98 -258 -199h-238q-131 90 -262 213q-23 358 -37 784zM215 1395l336 321l217 -227q-78 -57 -165 -126t-136 -110l-49 -39zM350 893q8 -371 17 -758q123 -10 235 -12 q10 354 23 772q-164 2 -275 -2z" />
<glyph unicode="&#xf4;" horiz-adv-x="960" d="M63 907q121 131 238 240q143 10 334 22q145 -125 268 -266q-23 -233 -35 -631q-6 -163 -10 -163q-129 -98 -258 -199h-238q-131 90 -262 213q-23 358 -37 784zM66 1376l303 342h231l277 -342q-31 -27 -70 -65.5t-62 -63.5l-22 -24l-238 311l-262 -307zM350 893 q8 -371 17 -758q123 -10 235 -12q10 354 23 772q-164 2 -275 -2z" />
<glyph unicode="&#xf5;" horiz-adv-x="962" d="M4 1438q184 111 358 225q121 -127 226 -225q125 66 250 166q57 -102 123 -203q-199 -100 -373 -203q-125 102 -238 211q-86 -84 -194 -170l-23 31q-23 31 -60.5 80t-68.5 88zM63 907q121 131 238 240q143 10 334 22q145 -125 268 -266q-23 -233 -35 -631 q-6 -163 -10 -163q-129 -98 -258 -199h-238q-131 90 -262 213q-23 358 -37 784zM350 893q8 -371 17 -758q123 -10 235 -12q10 354 23 772q-164 2 -275 -2z" />
<glyph unicode="&#xf6;" horiz-adv-x="960" d="M63 907q121 131 238 240q143 10 334 22q145 -125 268 -266q-23 -233 -35 -631q-6 -163 -10 -163q-129 -98 -258 -199h-238q-131 90 -262 213q-23 358 -37 784zM113 1567l266 -4l-10 -275l-250 2zM350 893q8 -371 17 -758q123 -10 235 -12q10 354 23 772q-164 2 -275 -2z M541 1567l266 -4l-10 -275l-250 2z" />
<glyph unicode="&#xf7;" horiz-adv-x="1288" d="M158 827q481 -8 977 -14q-4 -129 -13 -260q-457 -4 -950 -10q-8 147 -14 284zM504 481l284 -4l-10 -270l-268 2zM504 1159l284 -6l-10 -270l-268 4z" />
<glyph unicode="&#xf8;" horiz-adv-x="940" d="M47 907q123 131 240 240q141 10 334 22q20 -20 53 -55l59 119q43 -23 86 -48.5t66 -41.5l22 -15q-14 -27 -45 -84t-45 -83q2 -2 21.5 -24t29.5 -34q-18 -190 -43 -536q-16 -258 -22 -258q-88 -98 -217 -199h-238q-23 14 -59 43l-74 -143l-147 94q14 29 39.5 83t39.5 81 q-8 8 -18 17t-23.5 20.5t-19.5 17.5q-23 358 -39 784zM334 893q4 -184 10 -428q53 109 217 430q-154 0 -227 -2zM383 133q72 -6 205 -10q6 176 12 428q-213 -410 -217 -418z" />
<glyph unicode="&#xf9;" horiz-adv-x="1064" d="M84 1147q150 2 324 -4q-14 -539 -17 -930q109 0 266 2q4 463 0 885q162 -2 324 -10q-10 -199 -26.5 -430.5t-28.5 -364.5l-11 -133l136 -41l-62 -211l-125 31q-16 25 -37.5 48t-33.5 36l-13 10q-66 -55 -135 -121l-268 2q-115 104 -256 244q-10 190 -19.5 437t-13.5 398z M248 1479q86 121 188 245q168 -143 359 -294q-101 -127 -160 -207q-172 115 -387 256z" />
<glyph unicode="&#xfa;" horiz-adv-x="1064" d="M84 1147q150 2 324 -4q-14 -539 -17 -930q109 0 266 2q4 463 0 885q162 -2 324 -10q-10 -199 -26.5 -430.5t-28.5 -364.5l-11 -133l136 -41l-62 -211l-125 31q-16 25 -37.5 48t-33.5 36l-13 10q-66 -55 -135 -121l-268 2q-115 104 -256 244q-10 190 -19.5 437t-13.5 398z M276 1395l336 321l217 -227q-78 -57 -164.5 -126t-136.5 -110l-49 -39z" />
<glyph unicode="&#xfb;" horiz-adv-x="1064" d="M84 1147q150 2 324 -4q-14 -539 -17 -930q109 0 266 2q4 463 0 885q162 -2 324 -10q-10 -199 -26.5 -430.5t-28.5 -364.5l-11 -133l136 -41l-62 -211l-125 31q-16 25 -37.5 48t-33.5 36l-13 10q-66 -55 -135 -121l-268 2q-115 104 -256 244q-10 190 -19.5 437t-13.5 398z M127 1376l303 342h232l276 -342q-31 -27 -70 -65.5t-61 -63.5l-23 -24l-237 311l-262 -307z" />
<glyph unicode="&#xfc;" horiz-adv-x="1064" d="M84 1147q150 2 324 -4q-14 -539 -17 -930q109 0 266 2q4 463 0 885q162 -2 324 -10q-10 -199 -26.5 -430.5t-28.5 -364.5l-11 -133l136 -41l-62 -211l-125 31q-16 25 -37.5 48t-33.5 36l-13 10q-66 -55 -135 -121l-268 2q-115 104 -256 244q-10 190 -19.5 437t-13.5 398z M195 1567l266 -4l-10 -275l-250 2zM623 1567l266 -4l-10 -275l-250 2z" />
<glyph unicode="&#xfd;" horiz-adv-x="985" d="M49 1135l336 16q-10 -489 6 -995l176 -4q25 438 45 1009q172 -10 332 -18q-86 -760 -176 -1673q-145 6 -252 10q23 213 39 461q-76 -6 -164 -23q-57 39 -124.5 93.5t-106.5 86.5l-39 35zM236 1395l335 321l217 -227q-78 -57 -164.5 -126t-136.5 -110l-49 -39z" />
<glyph unicode="&#xfe;" horiz-adv-x="985" d="M68 1434q156 -4 299 0q0 -156 -2 -338q188 2 297 2q125 -115 272 -256q-41 -371 -68 -705q-125 -121 -243 -215q-141 0 -258 -6l-5 -395l-270 2zM365 156q125 -2 258 0q2 35 5 97t7 235t2 325q-129 -2 -272 -4v-653z" />
<glyph unicode="&#xff;" horiz-adv-x="985" d="M49 1135l336 16q-10 -489 6 -995l176 -4q25 438 45 1009q172 -10 332 -18q-86 -760 -176 -1673q-145 6 -252 10q23 213 39 461q-76 -6 -164 -23q-57 39 -124.5 93.5t-106.5 86.5l-39 35zM154 1567l266 -4l-10 -275l-250 2zM582 1567l266 -4l-10 -275l-250 2z" />
<glyph unicode="&#x152;" horiz-adv-x="1722" d="M70 1255q113 178 270 347q143 -6 395 0q37 -47 90 -119l-8 100l848 14q-8 -178 -18 -352q-297 14 -527 29l17 -545q173 22 415 59l11 -301l-418 -24q4 -158 10 -242q225 8 498 29q-4 -166 -6 -324q-168 -4 -350.5 -4h-280.5l-101 2q-2 86 -10 236q-88 -102 -217 -256 q-76 2 -313 10q-139 127 -279 301q-6 471 -26 1040zM371 1239q10 -590 14 -1024q74 -2 283 -6q2 61 6 165.5t10 376t4 480.5q-16 2 -44 4t-110.5 4t-162.5 0z" />
<glyph unicode="&#x153;" horiz-adv-x="1628" d="M70 907q121 131 237 240q143 10 334 22q72 -72 160 -168l137 154l393 -16l258 -246l-69 -399l-529 -29q4 -160 4 -313q74 0 139.5 4t94.5 8l28 2l-12 172l287 16l-16 -221q-41 -53 -93.5 -107.5t-83.5 -82.5l-32 -27l-318 -22l-203 176q-78 -78 -178 -160h-237 q-133 90 -265 213q-23 358 -36 784zM356 893q8 -371 19 -758q121 -10 235 -12q10 354 23 772q-166 2 -277 -2zM981 874l2 -215l307 31l15 193z" />
<glyph unicode="&#x178;" horiz-adv-x="987" d="M51 1593l316 4q-4 -684 2 -968l239 -8l13 976l321 -2q-45 -608 -90 -997l-240 -217q0 -100 15 -457q-133 -2 -283 2q12 145 12 463l-245 232zM133 2034l266 -6l-10 -275l-250 4zM561 2034l266 -6l-10 -275l-250 4z" />
<glyph unicode="&#x2c6;" horiz-adv-x="1028" d="M43 1513l358 349l234 -7q72 -76 157 -160.5t134 -133.5l51 -48q-37 -33 -81 -76.5t-69 -70.5l-26 -27l-271 295l-305 -291q-39 41 -84 83t-71 65z" />
<glyph unicode="&#x2dc;" horiz-adv-x="1054" d="M45 1919q184 111 358 225q121 -127 226 -225q125 66 250 166q57 -102 122 -203q-199 -100 -372 -203q-125 102 -238 209q-86 -82 -194 -168l-23 31q-23 31 -60.5 80t-68.5 88z" />
<glyph unicode="&#x2000;" horiz-adv-x="1127" />
<glyph unicode="&#x2001;" horiz-adv-x="2255" />
<glyph unicode="&#x2002;" horiz-adv-x="1127" />
<glyph unicode="&#x2003;" horiz-adv-x="2255" />
<glyph unicode="&#x2004;" horiz-adv-x="751" />
<glyph unicode="&#x2005;" horiz-adv-x="563" />
<glyph unicode="&#x2006;" horiz-adv-x="375" />
<glyph unicode="&#x2007;" horiz-adv-x="375" />
<glyph unicode="&#x2008;" horiz-adv-x="281" />
<glyph unicode="&#x2009;" horiz-adv-x="451" />
<glyph unicode="&#x200a;" horiz-adv-x="125" />
<glyph unicode="&#x2010;" horiz-adv-x="1030" d="M106 717q401 -16 828 -21q-4 -201 -14 -372q-438 -10 -801 -15q-11 201 -13 408z" />
<glyph unicode="&#x2011;" horiz-adv-x="1030" d="M106 717q401 -16 828 -21q-4 -201 -14 -372q-438 -10 -801 -15q-11 201 -13 408z" />
<glyph unicode="&#x2012;" horiz-adv-x="1030" d="M106 717q401 -16 828 -21q-4 -201 -14 -372q-438 -10 -801 -15q-11 201 -13 408z" />
<glyph unicode="&#x2013;" horiz-adv-x="1112" d="M53 727q512 -12 981 -18q-8 -195 -14 -373q-551 -8 -952 -17q-7 222 -15 408z" />
<glyph unicode="&#x2014;" horiz-adv-x="1544" d="M141 690q819 -12 1289 -18q-8 -195 -15 -373q-858 -8 -1261 -16q-5 221 -13 407z" />
<glyph unicode="&#x2018;" horiz-adv-x="595" d="M90 1040q8 217 14 381q82 164 140 301q76 -16 162 -43q-33 -113 -56 -231q4 6 139 -21q11 -217 19 -391q-211 4 -418 4z" />
<glyph unicode="&#x2019;" horiz-adv-x="567" d="M70 1696q211 -4 417 -4q-8 -217 -14 -381q-82 -164 -139 -301q-76 16 -162 43q33 113 55 231q-6 -4 -139 21q-12 217 -18 391z" />
<glyph unicode="&#x201a;" horiz-adv-x="583" d="M70 264q211 -4 417 -4q-8 -217 -14 -379q-82 -164 -139 -301q-76 16 -162 43q33 113 55 232q-6 -4 -139 20q-12 215 -18 389z" />
<glyph unicode="&#x201c;" horiz-adv-x="1107" d="M90 1040q8 217 12 381q82 164 142 301q74 -16 162 -43q-35 -113 -56 -231q4 6 139 -21q11 -217 19 -391q-211 4 -418 4zM580 1040q8 217 12 381q82 164 141 301q74 -16 162 -43q-35 -113 -55 -231q4 6 139 -21q10 -217 18 -391q-211 4 -417 4z" />
<glyph unicode="&#x201d;" horiz-adv-x="1079" d="M70 1696q211 -4 417 -4q-8 -217 -14 -381q-82 -164 -139 -301q-76 16 -162 43q33 113 55 231q-6 -4 -139 21q-12 217 -18 391zM555 1696q211 -4 418 -4q-8 -217 -15 -381q-82 -164 -141 -301q-74 16 -162 43q35 113 58 231q-6 -4 -140 21q-12 217 -18 391z" />
<glyph unicode="&#x201e;" horiz-adv-x="1107" d="M102 264q211 -4 418 -4q-8 -217 -14 -379q-82 -164 -141 -301q-74 16 -160 43q33 113 55 232q-6 -4 -139 20q-13 215 -19 389zM592 264q211 -4 418 -4q-8 -217 -15 -379q-82 -164 -141 -301q-74 16 -162 43q35 113 58 232q-6 -4 -140 20q-12 215 -18 389z" />
<glyph unicode="&#x2022;" horiz-adv-x="1058" d="M315 928l418 -6l-16 -383l-393 4z" />
<glyph unicode="&#x2026;" horiz-adv-x="1685" d="M102 272l418 -8l-16 -381l-393 4zM629 272l418 -8l-17 -381l-391 4zM1155 272l416 -8l-15 -381l-393 4z" />
<glyph unicode="&#x202f;" horiz-adv-x="451" />
<glyph unicode="&#x2039;" horiz-adv-x="839" d="M76 659q94 80 204.5 181.5t174.5 163.5l63 61q45 -43 98.5 -98.5t83.5 -87.5l29 -33l-401 -316q70 -66 169 -149.5t162 -134.5l64 -49l-182 -199q-111 111 -226.5 221.5t-175.5 165.5l-59 55z" />
<glyph unicode="&#x203a;" horiz-adv-x="839" d="M94 846q117 107 219 205q223 -205 432 -392q4 -133 5 -247q-223 -203 -465 -414q-92 109 -187 199q231 174 394 307q-215 184 -398 342z" />
<glyph unicode="&#x205f;" horiz-adv-x="563" />
<glyph unicode="&#x20ac;" horiz-adv-x="1193" d="M66 666q55 -2 147 -2q-4 43 -8 129h-135q-2 123 -4 223q49 -2 129 -2l-13 233l248 344l371 23l307 -328l-55 -510l-285 -12l29 510l-303 -19v-241q51 -2 153 -2q2 -109 -4 -211q-57 -2 -149 -4q2 -47 2 -135q25 0 75 1t76 1q-2 -109 -4 -213q-57 0 -145 -2l6 -269h244 l16 238l301 -8l-29 -273q-61 -55 -129.5 -113.5t-107.5 -89.5l-37 -28h-275l-243 262l-19 276q-25 0 -77 -1t-78 -1q-2 125 -4 224z" />
<glyph unicode="&#x2122;" horiz-adv-x="1517" d="M84 1610q252 -2 532 2q-2 -94 -2 -185h-190l-8 -581h-137q-6 301 -17 581h-170zM668 1608q131 -4 239 0q98 -293 176 -525q49 254 109 523q145 -2 223 -2l-2 -754h-178q2 205 10 432q-57 -233 -110 -432h-109q-78 229 -154 450q12 -246 17 -450q-111 -2 -201 -2 q-14 359 -20 760z" />
<glyph unicode="&#x25fc;" horiz-adv-x="1167" d="M0 0v1167h1167v-1167h-1167z" />
<glyph unicode="&#xfb01;" horiz-adv-x="1349" d="M37 956l166 5q-4 176 -29 391l275 254h380q-16 -205 -38 -404q-162 31 -306 58q-4 -4 -12 -293l318 24l-9 -295q-193 4 -309 6q2 -391 0 -786q-27 -2 -54.5 -2t-51 1t-46 2t-40 3t-30.5 3t-22 3h-6q-4 465 -10 774q-106 -4 -168 -6zM911 1597q170 0 346 -4 q-6 -135 -14 -309q-152 2 -321 4q-4 170 -11 309zM934 1124l299 -4l-37 -1210h-256z" />
<glyph unicode="&#xfb02;" horiz-adv-x="1349" d="M63 956l164 5q-4 176 -26 391l274 254h379q-14 -205 -37 -404q-162 31 -305 58q-4 -4 -12 -293l317 24l-8 -295q-193 4 -309 6q2 -391 0 -786q-27 -2 -54.5 -2t-51 1t-46 2t-40 3t-31 3t-19.5 3h-8q-4 465 -12 774q-104 -4 -166 -6zM936 1597h313q-22 -805 -45 -1677 l-246 -2q-4 858 -22 1679z" />
</font>
</defs>
</svg>
